<?xml version="1.0" standalone="no"?>
<!DOCTYPE svg PUBLIC "-//W3C//DTD SVG 20010904//EN"
 "http://www.w3.org/TR/2001/REC-SVG-20010904/DTD/svg10.dtd">
<svg version="1.0" xmlns="http://www.w3.org/2000/svg"
 width="3464.000000pt" height="3464.000000pt" viewBox="0 0 3464.000000 3464.000000"
 preserveAspectRatio="xMidYMid meet">
<metadata>
Created by potrace 1.11, written by Peter Selinger 2001-2013
</metadata>
<g transform="translate(0.000000,3464.000000) scale(0.100000,-0.100000)"
fill="#000000" stroke="none">
<path d="M17020 34615 c0 -22 -5 -25 -32 -25 -18 0 -89 -9 -158 -20 -69 -11
-150 -20 -182 -20 -82 0 -171 -31 -229 -80 -49 -41 -67 -49 -206 -89 -57 -17
-82 -31 -118 -66 -29 -27 -67 -52 -103 -65 -88 -32 -100 -40 -131 -89 -23 -38
-37 -49 -82 -64 -48 -17 -76 -41 -269 -235 -119 -120 -249 -248 -289 -287 -52
-49 -81 -86 -98 -125 -36 -82 -37 -83 -82 -114 -33 -22 -50 -45 -75 -100 -21
-46 -48 -84 -75 -108 -38 -34 -111 -164 -111 -197 0 -6 -10 -15 -22 -22 -41
-20 -87 -72 -99 -108 -16 -48 -42 -84 -73 -101 -37 -19 -61 -62 -87 -158 -20
-76 -26 -85 -63 -110 -54 -37 -73 -72 -94 -182 -17 -93 -18 -95 -60 -123 -54
-37 -72 -71 -94 -187 -16 -87 -21 -97 -53 -124 -46 -37 -69 -84 -84 -171 -19
-106 -29 -131 -75 -185 -44 -51 -57 -86 -92 -238 -9 -40 -27 -87 -40 -105 -13
-17 -31 -42 -40 -55 -23 -32 -54 -128 -54 -168 0 -18 -7 -86 -15 -151 -13
-101 -20 -126 -49 -173 -69 -113 -81 -163 -96 -410 -16 -250 -24 -295 -67
-358 -33 -48 -37 -61 -44 -145 -4 -51 -14 -128 -23 -172 -9 -46 -16 -137 -16
-215 0 -74 -6 -209 -14 -300 -7 -91 -11 -194 -8 -229 7 -101 -15 -227 -49
-274 -40 -56 -47 -85 -54 -250 -3 -81 -8 -157 -11 -170 -5 -23 -7 -721 -2
-747 1 -8 -1 -89 -6 -180 -13 -277 22 -634 89 -915 26 -107 44 -237 50 -355
11 -209 35 -311 88 -382 38 -49 58 -146 50 -240 -3 -43 -11 -82 -17 -87 -6 -4
-29 -14 -51 -21 -67 -21 -118 -50 -165 -95 -31 -28 -67 -49 -111 -64 -64 -21
-104 -52 -127 -97 -7 -14 -41 -32 -102 -54 -79 -28 -99 -40 -149 -91 -32 -32
-67 -59 -77 -59 -32 0 -117 -47 -149 -81 -16 -17 -55 -43 -85 -56 -104 -45
-124 -58 -147 -93 -32 -49 -62 -78 -91 -85 -40 -10 -72 -36 -92 -75 -14 -27
-34 -44 -75 -65 -36 -17 -67 -42 -86 -68 -16 -22 -44 -49 -62 -60 -33 -20 -95
-78 -285 -268 -208 -209 -250 -255 -267 -290 -10 -19 -38 -47 -63 -64 -31 -20
-55 -46 -71 -78 -18 -35 -40 -58 -77 -82 -39 -25 -60 -48 -78 -83 -17 -33 -35
-53 -56 -62 -39 -16 -67 -51 -82 -104 -9 -28 -31 -59 -71 -97 -54 -51 -61 -63
-83 -140 -24 -85 -27 -88 -103 -147 -19 -14 -38 -45 -52 -81 -14 -40 -37 -76
-69 -108 -49 -50 -49 -51 -90 -205 -7 -25 -26 -50 -59 -78 -51 -42 -71 -83
-87 -175 -9 -52 -29 -85 -67 -110 -50 -33 -68 -67 -88 -166 -18 -86 -23 -97
-59 -132 -53 -51 -66 -79 -80 -163 -6 -38 -13 -80 -16 -93 -3 -14 -29 -48 -59
-76 -64 -62 -71 -82 -89 -277 -15 -157 -26 -191 -80 -262 -41 -55 -62 -120
-70 -226 -13 -156 -28 -220 -61 -269 -68 -99 -82 -172 -95 -491 -10 -261 -20
-318 -64 -371 -41 -49 -69 -136 -62 -194 31 -240 34 -278 25 -372 -4 -54 -13
-154 -19 -221 -12 -141 -3 -197 50 -303 45 -90 48 -113 59 -384 6 -137 13
-286 16 -330 8 -114 41 -244 76 -300 34 -53 52 -125 70 -270 14 -121 40 -195
85 -245 42 -46 60 -95 74 -202 14 -99 29 -131 78 -162 56 -35 64 -50 78 -142
14 -95 30 -126 79 -155 56 -34 61 -50 68 -219 8 -175 9 -172 -68 -217 -32 -19
-58 -45 -75 -73 -20 -34 -40 -52 -85 -75 -42 -21 -68 -43 -88 -73 -16 -23 -46
-51 -67 -62 -39 -20 -72 -58 -89 -103 -6 -15 -27 -35 -48 -46 -44 -22 -69 -47
-98 -99 -11 -19 -40 -47 -64 -62 -34 -20 -53 -41 -80 -93 -23 -43 -48 -75 -68
-87 -18 -11 -43 -37 -57 -58 -26 -41 -53 -65 -104 -94 -43 -23 -60 -54 -80
-149 -17 -76 -22 -86 -53 -107 -58 -40 -68 -53 -96 -128 -17 -46 -42 -90 -67
-116 -40 -45 -68 -99 -81 -158 -10 -48 -46 -130 -56 -130 -17 0 -70 -84 -84
-134 -8 -28 -21 -96 -29 -150 -10 -70 -20 -107 -35 -125 -26 -31 -76 -136 -91
-188 -5 -21 -15 -119 -20 -218 -16 -296 -18 -312 -50 -348 -58 -67 -63 -88
-72 -287 -4 -102 -10 -338 -14 -525 -5 -290 -4 -350 10 -410 9 -38 25 -110 36
-159 11 -48 31 -111 44 -140 30 -61 44 -139 52 -301 7 -119 6 -121 -18 -150
l-26 -29 -138 -2 c-156 -1 -198 -11 -240 -55 -16 -17 -54 -43 -84 -59 -65 -33
-79 -47 -115 -119 -15 -30 -40 -65 -56 -79 -43 -36 -56 -67 -79 -193 -28 -161
-35 -179 -80 -223 -61 -59 -70 -103 -76 -361 -6 -245 -21 -354 -64 -456 -43
-103 -80 -285 -91 -454 -13 -198 -36 -364 -53 -384 -57 -65 -83 -178 -96 -416
-11 -193 -27 -276 -64 -340 -55 -93 -69 -176 -101 -574 l-15 -185 -49 -105
c-56 -121 -67 -168 -76 -336 -8 -161 -22 -248 -51 -320 -78 -199 -91 -256 -99
-443 -9 -212 -27 -311 -80 -440 -49 -121 -60 -172 -75 -357 -11 -132 -31 -228
-55 -255 -45 -52 -71 -145 -80 -290 -26 -411 -33 -456 -86 -565 -43 -89 -56
-165 -84 -470 -20 -212 -26 -237 -75 -332 -58 -110 -70 -167 -70 -334 0 -107
-5 -162 -19 -215 -20 -79 -22 -83 -62 -134 -51 -65 -79 -208 -79 -400 0 -176
-23 -305 -74 -427 -48 -113 -76 -292 -76 -481 0 -202 10 -233 90 -276 28 -15
63 -43 78 -62 50 -64 76 -73 244 -90 84 -8 304 -21 488 -29 184 -8 351 -19
370 -24 19 -5 78 -12 130 -16 52 -3 113 -10 135 -15 147 -33 450 -57 875 -70
173 -5 356 -12 405 -16 105 -7 232 -29 249 -43 33 -28 140 -42 371 -51 132 -5
292 -16 355 -25 88 -12 266 -18 765 -25 666 -10 887 -20 1010 -46 102 -22 268
-28 392 -15 171 19 261 15 523 -19 211 -28 282 -33 515 -36 149 -2 313 -9 365
-15 63 -7 843 -12 2340 -15 2128 -4 2487 -8 3020 -36 181 -9 286 -9 540 3 314
14 1535 17 3415 8 396 -1 907 0 1135 4 228 3 869 9 1425 12 954 5 1181 10
1575 36 91 6 193 11 227 10 33 -1 92 3 130 8 37 6 131 13 208 17 191 9 325 28
420 59 137 46 161 60 190 110 18 29 42 53 67 66 51 26 74 77 82 189 4 47 14
111 23 143 16 57 16 57 54 57 l39 0 0 1095 0 1095 -39 0 -38 0 -12 98 c-8 59
-18 415 -26 922 -10 612 -17 859 -29 955 -8 72 -20 175 -25 230 -5 60 -20 130
-35 175 -43 123 -56 266 -66 730 -12 549 -28 681 -94 795 -39 66 -54 169 -61
430 -3 132 -13 294 -21 360 -8 66 -14 152 -14 193 0 86 -21 196 -55 286 -44
116 -51 227 -70 1031 -15 648 -16 652 -74 770 -41 81 -49 122 -65 313 -14 182
-18 192 -96 247 -31 22 -48 43 -58 73 -9 28 -28 54 -55 75 -22 17 -59 51 -81
74 -23 22 -55 48 -72 57 -67 33 -622 53 -1004 35 -302 -14 -303 -14 -378 55
-65 60 -78 94 -85 218 -9 158 -28 217 -93 284 -30 30 -56 65 -59 77 -3 12 -12
58 -21 102 -17 86 -44 158 -73 190 -28 31 -59 127 -76 231 -17 105 -29 136
-70 174 -35 33 -43 49 -66 132 -25 91 -52 142 -88 169 -29 21 -49 59 -71 132
-6 20 -33 61 -59 90 -52 57 -70 86 -102 171 -15 41 -33 67 -69 97 -26 22 -51
53 -55 67 -9 38 -42 89 -97 149 -26 29 -61 79 -77 112 -19 36 -48 74 -76 96
-29 24 -56 59 -75 99 -23 48 -40 68 -77 91 -46 29 -49 33 -69 109 -18 72 -19
86 -7 160 10 66 17 85 38 104 14 12 32 22 40 22 15 0 63 53 87 98 9 17 31 38
50 47 50 26 67 44 95 103 17 35 38 62 65 79 21 15 51 47 66 72 15 25 57 79 94
119 37 40 80 98 95 130 17 36 41 68 67 87 40 30 50 44 82 117 11 25 30 45 58
60 51 29 78 80 96 182 12 71 16 79 53 108 46 37 68 81 93 192 16 68 23 81 54
105 69 51 83 84 96 216 7 81 13 94 69 157 48 54 68 117 84 270 11 97 19 114
65 145 45 29 64 74 76 184 16 147 34 195 90 248 50 48 70 93 70 160 0 86 32
248 59 301 61 118 82 210 92 407 10 186 31 296 64 323 23 19 52 108 70 217 15
89 16 170 12 714 -3 404 -9 640 -16 689 -7 41 -30 127 -51 190 -47 137 -66
266 -79 520 -11 212 -25 274 -76 324 -47 48 -62 81 -70 161 -10 110 -31 168
-78 227 -47 57 -72 120 -82 208 -13 107 -24 132 -81 186 -54 50 -54 51 -65
135 -14 103 -37 151 -88 184 -22 13 -42 28 -45 33 -2 4 -12 50 -20 101 -17
105 -28 128 -87 168 -50 33 -52 36 -79 133 -19 64 -29 82 -70 120 -31 30 -59
70 -78 113 -25 55 -39 72 -76 94 -37 22 -50 38 -68 83 -13 32 -43 77 -72 107
-27 29 -68 87 -90 130 -31 58 -52 85 -86 108 -25 17 -62 53 -82 80 -20 27 -52
58 -70 69 -51 31 -81 58 -107 93 -13 17 -63 55 -112 84 -50 29 -101 68 -116
88 -34 45 -47 56 -105 86 -25 14 -49 33 -52 43 -10 31 -58 70 -111 89 -38 14
-56 29 -79 63 -17 25 -39 52 -50 60 -61 44 -79 67 -73 92 4 15 21 39 37 55 50
46 69 84 100 208 28 110 60 185 80 185 24 0 61 92 76 191 17 110 17 108 92
166 20 15 35 41 46 80 40 133 49 151 92 187 33 28 47 50 64 100 18 54 30 73
71 107 61 51 63 55 84 153 17 87 37 129 69 146 37 19 65 73 87 168 19 83 26
97 61 130 52 48 65 76 84 169 20 104 30 126 70 162 50 46 64 82 90 230 l23
134 50 44 c55 48 65 72 81 186 12 92 15 99 70 152 43 42 62 91 75 190 3 28 13
83 22 123 15 63 21 75 49 91 42 25 73 86 85 165 5 33 12 76 15 95 3 22 22 50
54 82 57 57 72 97 89 239 26 206 41 258 93 329 32 43 47 122 63 336 17 226 25
269 54 306 28 36 48 90 55 150 4 30 13 99 21 154 7 55 19 204 25 330 13 244
30 367 55 395 9 9 25 44 36 76 29 82 43 398 35 800 -7 350 -20 452 -68 554
-35 75 -67 281 -68 437 0 143 -37 286 -88 339 -31 32 -38 53 -57 154 -19 109
-42 160 -86 192 -19 14 -48 57 -75 110 -30 61 -56 97 -87 122 -25 20 -57 61
-74 93 -22 42 -43 67 -79 90 -27 18 -57 48 -67 66 -28 54 -59 76 -153 108 -69
24 -95 38 -117 65 -34 41 -79 65 -168 88 -43 11 -85 32 -119 57 -86 64 -139
74 -559 100 -149 10 -234 10 -370 1 -97 -7 -234 -14 -306 -18 -149 -6 -201
-24 -235 -79 -31 -51 -44 -57 -136 -66 -121 -12 -157 -26 -218 -79 -44 -39
-69 -51 -152 -76 -85 -25 -104 -35 -139 -71 -27 -28 -72 -56 -137 -86 -79 -37
-101 -52 -121 -84 -13 -21 -35 -43 -48 -49 -13 -6 -45 -21 -71 -32 -32 -15
-54 -33 -69 -60 -14 -23 -41 -48 -70 -65 -34 -19 -57 -41 -77 -77 -20 -35 -42
-57 -73 -73 -28 -15 -57 -42 -79 -75 -19 -28 -51 -61 -70 -74 -22 -14 -47 -46
-65 -82 -21 -40 -46 -71 -78 -95 -28 -21 -60 -57 -75 -86 -16 -30 -44 -61 -70
-78 -23 -16 -51 -46 -62 -66 -10 -21 -35 -51 -55 -67 -87 -69 -102 -89 -125
-176 -25 -93 -35 -115 -61 -138 -10 -8 -44 -62 -75 -120 -31 -58 -69 -118 -84
-135 -37 -41 -46 -59 -85 -184 -24 -74 -43 -115 -61 -131 -39 -37 -61 -88 -89
-201 -22 -91 -29 -106 -69 -149 -48 -51 -67 -100 -85 -220 -16 -100 -38 -164
-67 -191 -38 -35 -51 -66 -80 -186 -30 -123 -35 -134 -80 -185 -40 -45 -58
-103 -79 -262 -16 -120 -30 -161 -67 -200 -42 -44 -68 -129 -87 -293 -11 -89
-25 -126 -71 -188 -45 -61 -60 -116 -75 -280 -18 -183 -31 -247 -55 -278 -49
-62 -99 -222 -100 -315 0 -83 -29 -181 -66 -222 -59 -66 -76 -119 -85 -268 -4
-74 -13 -184 -20 -244 -11 -104 -14 -113 -46 -149 -47 -52 -60 -100 -78 -289
-19 -201 -44 -328 -78 -395 -13 -27 -34 -68 -45 -90 -11 -22 -23 -56 -27 -76
-4 -19 -17 -53 -29 -75 l-22 -39 -74 3 c-78 3 -208 41 -244 71 -17 14 -18 27
-13 126 3 61 13 136 21 168 9 32 16 85 16 118 0 48 5 67 24 92 38 50 54 127
71 332 17 211 27 279 55 375 26 90 71 468 81 690 11 254 11 2818 -1 3065 -10
217 -21 274 -69 346 -51 76 -61 137 -72 439 -5 151 -7 291 -4 311 7 39 -16
153 -39 197 -8 15 -26 39 -40 53 -47 47 -56 87 -65 287 -10 208 -27 287 -79
351 -42 53 -48 68 -62 151 -18 118 -37 165 -84 213 -32 32 -48 59 -60 100 -8
32 -22 81 -30 110 -11 37 -27 64 -56 92 -24 23 -61 78 -86 127 -30 60 -56 97
-85 120 -26 21 -52 55 -71 96 -23 49 -39 67 -74 88 -27 16 -52 41 -63 63 -22
42 -54 73 -96 92 -16 8 -43 35 -60 62 -23 36 -45 54 -92 78 -39 20 -70 44 -85
67 -37 56 -66 72 -167 88 -103 16 -137 30 -194 79 -48 41 -121 62 -267 75 -63
6 -142 17 -175 25 -33 8 -81 14 -107 15 -44 0 -48 2 -48 25 0 22 -4 25 -35 25
-31 0 -35 -3 -35 -25z m321 -594 c103 -17 137 -31 179 -71 25 -24 60 -45 89
-54 72 -21 111 -44 160 -93 25 -25 77 -60 120 -81 75 -36 78 -38 109 -103 18
-38 59 -96 94 -136 35 -37 75 -89 90 -114 15 -26 43 -56 62 -67 46 -27 62 -54
80 -135 17 -73 45 -136 71 -157 25 -21 32 -39 74 -195 22 -81 53 -170 70 -199
40 -71 57 -140 81 -332 13 -103 34 -206 59 -294 22 -74 42 -166 46 -205 3 -38
12 -113 20 -165 8 -52 17 -160 20 -240 4 -92 14 -176 27 -230 18 -75 20 -103
14 -236 -7 -174 6 -272 48 -351 23 -42 26 -60 26 -149 0 -77 -5 -115 -21 -160
-17 -48 -20 -75 -16 -144 3 -47 13 -105 22 -130 22 -59 31 -255 16 -342 -9
-51 -8 -97 4 -217 17 -163 13 -203 -26 -269 -11 -20 -21 -62 -25 -111 -6 -71
-4 -84 20 -136 32 -72 33 -115 1 -184 -34 -73 -49 -212 -39 -366 10 -161 10
-157 -14 -265 -32 -140 -72 -383 -72 -435 0 -25 7 -86 16 -136 8 -50 12 -98 9
-107 -4 -10 -9 -111 -11 -227 -2 -144 -8 -230 -19 -275 -79 -332 -125 -656
-125 -883 0 -52 -7 -131 -15 -174 -8 -43 -15 -117 -15 -165 0 -82 2 -91 41
-166 49 -97 70 -117 179 -174 76 -40 89 -44 125 -37 22 4 97 8 166 8 136 1
188 -11 279 -63 52 -29 138 -49 306 -71 115 -15 116 -15 199 9 102 30 129 47
162 103 14 24 49 62 78 83 28 21 57 51 63 67 13 31 42 586 42 792 0 145 9 179
60 237 28 33 30 40 30 117 0 100 21 231 50 312 13 38 25 103 30 175 8 112 15
138 66 246 13 28 35 114 49 190 39 217 43 228 77 254 46 34 67 93 78 221 15
185 27 228 66 250 61 32 103 181 104 369 1 47 4 116 9 153 6 61 11 71 39 94
41 32 65 79 86 173 26 110 47 172 69 202 11 15 28 62 37 105 46 203 75 288
128 367 28 42 56 96 62 119 36 146 44 168 79 215 36 47 43 66 101 283 7 24 22
43 47 60 56 37 73 67 89 160 20 115 20 115 67 146 34 23 51 46 87 120 25 50
61 109 81 131 20 21 44 61 54 88 9 27 22 61 27 76 6 15 29 43 53 63 25 20 59
64 80 102 20 38 59 92 87 121 27 29 62 81 78 115 23 52 37 68 79 94 32 21 57
46 71 72 16 33 32 47 74 65 59 26 232 187 259 242 12 24 34 38 104 69 105 46
134 65 152 98 7 14 27 32 45 40 111 51 130 63 152 99 26 41 72 60 199 79 91
14 168 44 209 80 52 45 49 44 371 81 150 17 427 11 530 -12 93 -20 120 -32
152 -70 31 -37 79 -59 166 -74 86 -15 130 -36 152 -74 9 -15 30 -36 47 -47 17
-11 47 -49 67 -85 27 -47 48 -71 81 -90 34 -19 53 -41 75 -84 29 -56 67 -95
92 -96 7 0 16 -8 22 -17 20 -39 63 -181 75 -253 8 -42 22 -92 32 -110 11 -18
25 -43 32 -56 17 -30 37 -162 50 -319 6 -67 17 -139 25 -160 38 -105 59 -206
52 -248 -4 -23 -10 -229 -14 -457 -7 -372 -10 -426 -30 -525 -16 -77 -25 -171
-31 -310 -5 -110 -13 -218 -19 -240 -6 -22 -17 -78 -25 -125 -18 -107 -72
-358 -92 -427 -8 -29 -26 -119 -39 -200 -14 -82 -34 -168 -44 -193 -11 -25
-23 -70 -26 -100 -4 -30 -15 -86 -26 -125 -10 -38 -30 -120 -44 -181 -22 -92
-33 -120 -66 -163 -48 -65 -75 -151 -89 -289 -13 -118 -20 -142 -56 -185 -34
-41 -59 -93 -73 -152 -47 -209 -50 -218 -90 -260 -48 -48 -57 -71 -81 -197
-21 -107 -28 -125 -66 -163 -50 -50 -76 -126 -104 -303 -10 -59 -18 -80 -47
-114 -19 -23 -43 -58 -53 -78 -12 -24 -40 -50 -78 -74 -74 -48 -90 -75 -98
-167 -3 -41 -15 -108 -25 -149 -16 -59 -28 -83 -63 -120 -38 -41 -46 -58 -65
-137 -11 -50 -21 -98 -21 -107 0 -23 -29 -66 -45 -66 -25 0 -74 -70 -90 -128
-34 -119 -46 -150 -71 -173 -15 -13 -50 -75 -80 -138 -29 -62 -69 -131 -88
-152 -21 -23 -42 -61 -52 -95 -12 -44 -28 -69 -70 -110 -56 -57 -90 -113 -118
-201 -13 -40 -25 -57 -52 -72 -34 -21 -43 -35 -100 -171 -10 -25 -40 -68 -66
-96 -26 -28 -57 -71 -68 -97 -19 -42 -20 -55 -11 -149 6 -57 19 -133 31 -169
17 -58 27 -73 76 -114 30 -26 67 -65 80 -87 31 -49 69 -72 169 -103 69 -21 83
-29 98 -57 26 -47 49 -61 163 -96 91 -29 103 -35 125 -69 17 -27 45 -49 93
-73 54 -28 71 -42 83 -70 19 -46 46 -74 91 -94 26 -12 45 -31 62 -64 18 -34
37 -53 68 -69 59 -29 71 -41 88 -82 19 -46 41 -69 87 -93 21 -10 41 -27 44
-36 13 -38 57 -84 103 -107 43 -22 50 -30 65 -77 25 -75 41 -104 85 -152 21
-23 53 -72 71 -110 27 -57 41 -74 86 -102 45 -29 54 -41 67 -83 19 -65 31 -87
78 -144 27 -32 49 -76 68 -135 25 -72 37 -94 73 -127 50 -46 68 -88 97 -237
21 -106 37 -146 84 -198 25 -28 36 -55 54 -140 13 -58 30 -134 38 -170 9 -41
28 -85 53 -121 42 -63 49 -102 71 -356 5 -67 15 -134 20 -148 6 -15 10 -47 10
-73 0 -26 7 -85 14 -132 8 -47 26 -150 40 -230 34 -198 46 -334 47 -529 1 -91
4 -191 8 -221 3 -31 1 -85 -6 -125 -7 -38 -15 -144 -19 -235 -6 -152 -8 -167
-29 -190 -61 -67 -85 -174 -84 -362 2 -209 -29 -436 -70 -516 -11 -21 -26 -62
-35 -92 -8 -30 -24 -82 -35 -115 -10 -33 -28 -98 -39 -145 -12 -52 -33 -107
-54 -142 -33 -53 -49 -104 -97 -305 -13 -52 -31 -96 -51 -124 -28 -39 -48 -94
-94 -260 -11 -40 -28 -67 -60 -100 -46 -47 -61 -84 -86 -213 -10 -47 -21 -68
-55 -105 -43 -46 -115 -179 -115 -212 0 -10 -16 -32 -36 -51 -22 -20 -54 -72
-84 -135 -36 -76 -62 -115 -102 -155 -35 -35 -59 -68 -68 -97 -10 -33 -26 -53
-57 -74 -30 -21 -52 -50 -75 -95 -20 -41 -45 -74 -68 -91 -20 -14 -58 -58 -85
-97 -51 -76 -231 -261 -352 -364 -40 -33 -73 -64 -73 -68 0 -21 -173 -181
-235 -217 -41 -24 -76 -52 -87 -71 -10 -18 -24 -35 -31 -38 -93 -47 -135 -76
-155 -106 -13 -19 -42 -45 -65 -56 -47 -25 -72 -49 -102 -101 -21 -37 -41 -47
-215 -106 -79 -27 -211 -112 -301 -194 -48 -44 -86 -68 -137 -87 -47 -18 -81
-39 -101 -61 -31 -36 -95 -62 -207 -85 -71 -15 -141 -49 -171 -84 -26 -29 -75
-56 -151 -81 -30 -9 -68 -32 -86 -50 -37 -36 -64 -47 -186 -70 -165 -32 -231
-57 -287 -111 -6 -6 -42 -14 -80 -18 -103 -10 -314 -53 -377 -77 -31 -11 -69
-31 -84 -43 -37 -31 -49 -34 -172 -51 -59 -7 -139 -23 -176 -34 -38 -10 -105
-27 -149 -36 -44 -10 -105 -24 -135 -32 -159 -43 -232 -54 -441 -63 -118 -5
-269 -16 -335 -25 -87 -13 -153 -15 -244 -11 -366 19 -409 19 -517 1 -117 -19
-263 -16 -410 10 -61 11 -109 12 -218 4 -77 -5 -149 -10 -160 -11 -11 0 -72 4
-135 11 -63 6 -232 16 -374 21 -287 11 -285 11 -307 79 -7 20 -36 86 -65 146
-46 95 -56 127 -74 235 -31 183 -57 273 -95 325 -25 34 -49 103 -65 190 -19
100 -50 184 -87 231 -40 54 -68 134 -88 264 -19 114 -38 177 -69 223 -32 46
-54 116 -72 227 -17 106 -39 163 -78 202 -32 31 -79 176 -91 278 -9 81 -26
129 -64 183 -16 23 -43 87 -60 142 -32 106 -49 130 -121 173 -19 11 -53 39
-75 62 -29 30 -57 46 -103 60 -35 11 -74 20 -86 20 -36 0 -138 38 -162 61
l-21 20 -52 -21 c-62 -24 -151 -26 -211 -5 -31 11 -47 12 -61 4 -11 -6 -90
-23 -175 -39 -171 -33 -201 -45 -239 -94 -19 -25 -49 -43 -118 -71 -72 -30
-102 -48 -137 -86 -25 -27 -63 -56 -85 -65 -53 -21 -84 -50 -105 -100 -10 -23
-34 -54 -53 -68 -75 -58 -101 -175 -92 -421 4 -129 2 -184 -8 -227 -14 -55
-13 -64 14 -178 29 -122 52 -179 86 -215 32 -34 52 -100 62 -207 11 -114 20
-144 79 -268 33 -70 41 -100 47 -170 5 -69 -6 -215 -18 -227 -2 -1 -21 4 -42
12 -22 8 -57 14 -77 15 -20 0 -40 5 -43 10 -14 23 -87 49 -194 71 -94 18 -117
27 -139 50 -15 15 -79 51 -142 80 -63 29 -128 63 -145 75 -28 21 -89 47 -228
96 -45 16 -65 29 -85 59 -26 37 -59 58 -152 96 -24 10 -69 39 -100 65 -30 27
-75 55 -100 64 -25 9 -57 21 -72 26 -15 6 -44 32 -63 59 -22 31 -51 56 -80 70
-24 11 -64 41 -87 66 -51 53 -80 69 -173 98 -63 20 -72 25 -95 66 -20 33 -41
52 -88 77 -41 22 -72 47 -89 73 -17 25 -47 51 -86 71 -73 39 -170 136 -204
203 -33 65 -49 83 -98 107 -37 18 -97 72 -193 172 -20 21 -71 73 -112 115 -41
42 -83 89 -93 104 -10 15 -35 38 -56 51 -24 15 -48 45 -69 84 -18 33 -51 75
-75 95 -29 23 -47 49 -55 75 -11 37 -79 112 -101 112 -6 0 -24 28 -41 62 -34
67 -81 132 -116 160 -20 16 -37 51 -68 139 -11 29 -33 62 -61 87 -25 23 -45
46 -45 51 0 6 -18 49 -40 95 -30 64 -49 90 -75 106 -40 25 -59 56 -70 115 -14
82 -44 147 -90 196 -25 26 -45 55 -45 64 0 30 -73 241 -101 291 -31 55 -70
214 -95 389 -16 111 -36 182 -66 235 -45 78 -53 133 -68 500 -7 167 -14 234
-31 300 -20 78 -22 105 -20 329 2 162 8 269 18 320 8 42 19 193 24 341 14 399
23 519 43 575 10 28 22 54 27 60 5 5 9 43 9 85 1 59 8 96 36 175 50 142 61
189 69 280 8 99 19 135 62 203 49 75 59 105 92 250 29 128 55 194 103 267 15
22 36 72 47 112 12 40 32 85 45 100 41 49 57 92 87 231 23 104 35 141 50 152
71 53 88 74 119 151 18 44 50 101 72 127 33 41 78 133 78 162 0 5 26 35 58 67
51 51 63 70 92 151 18 50 36 92 41 92 22 0 75 61 99 115 18 41 41 72 73 97 27
23 61 66 85 110 22 40 63 96 92 123 28 28 65 73 83 100 17 28 36 52 40 54 29
12 78 68 96 112 15 33 33 56 53 67 54 30 87 63 107 106 11 27 32 51 55 65 23
15 46 42 62 75 31 60 61 96 83 96 8 0 39 26 68 57 29 31 74 68 100 82 32 18
55 41 73 71 21 36 38 51 91 77 38 17 79 46 95 67 20 23 57 47 109 71 127 57
145 67 167 97 11 16 38 38 61 49 55 28 85 56 108 101 17 34 26 39 106 63 82
25 92 31 149 91 34 35 64 64 67 64 3 0 38 6 79 14 90 18 134 36 173 72 17 15
65 42 107 60 72 30 137 72 167 108 7 8 43 27 81 41 86 33 116 63 136 134 8 31
24 79 34 106 25 63 27 182 5 225 -9 17 -29 108 -45 202 -31 181 -59 286 -92
352 -26 52 -46 176 -58 366 -12 185 -32 310 -60 376 -26 61 -23 165 8 266 l21
67 -20 123 c-11 68 -29 173 -40 235 -18 98 -19 122 -9 188 12 77 14 173 10
395 -2 94 4 169 24 305 15 99 31 212 37 250 5 39 13 234 18 435 10 390 12 406
65 484 54 79 65 158 86 591 11 222 22 285 63 356 34 59 62 165 86 329 23 153
33 187 73 246 46 69 65 123 82 234 22 138 29 158 86 242 42 60 53 86 76 185
19 83 35 128 59 163 29 43 81 182 100 263 3 16 24 46 46 68 41 40 64 85 99
191 15 46 30 70 64 99 37 33 48 52 77 136 28 81 41 105 76 138 26 25 54 66 73
109 19 43 47 85 74 110 23 23 61 75 84 116 22 41 62 95 87 120 26 25 57 68 70
97 13 28 45 73 72 100 26 27 57 64 68 83 12 21 37 43 63 55 51 25 68 41 96 91
12 21 40 49 65 64 29 17 52 40 66 67 28 57 52 81 100 102 23 10 57 37 75 60
22 27 46 45 71 51 71 19 130 52 188 103 43 39 75 57 120 71 42 13 76 32 109
62 54 48 107 72 185 85 64 10 500 2 578 -10z m-2016 -19152 c33 -5 91 -13 128
-18 72 -10 107 -30 107 -63 0 -46 61 -118 101 -118 11 0 19 -7 19 -17 0 -41
31 -290 40 -322 13 -51 36 -79 78 -99 l37 -17 18 -145 c10 -80 25 -169 33
-199 14 -50 52 -102 81 -112 8 -2 21 -59 33 -143 21 -147 53 -283 75 -325 7
-14 24 -38 38 -52 25 -28 31 -59 61 -320 16 -134 34 -181 81 -203 30 -15 33
-21 39 -73 33 -285 53 -358 108 -388 45 -24 46 -28 58 -267 5 -101 13 -193 16
-205 6 -20 3 -23 -23 -23 -25 0 -32 6 -45 39 -21 54 -49 68 -179 94 -109 22
-113 24 -136 60 -12 20 -31 41 -41 46 -32 17 -138 51 -182 59 -40 7 -43 10
-62 61 -17 45 -26 56 -62 72 -22 10 -48 19 -57 19 -11 0 -21 19 -32 59 -17 59
-20 63 -101 121 -20 14 -36 31 -36 37 0 27 -56 72 -105 86 -45 13 -50 17 -57
51 -11 53 -30 84 -92 151 -49 53 -56 65 -61 115 -19 161 -51 233 -114 259 -34
15 -41 39 -41 155 0 84 -13 150 -35 176 -7 8 -20 37 -30 63 -10 26 -31 58 -46
70 -28 22 -28 22 -40 207 -6 102 -18 208 -26 235 -8 28 -18 82 -23 120 -13
102 -17 111 -57 156 -36 40 -37 44 -43 137 -3 54 -3 133 0 177 l5 80 44 16
c51 19 89 58 98 101 3 16 11 31 17 33 6 1 65 13 131 25 66 12 131 28 145 36
14 7 36 11 50 8 14 -3 52 -10 85 -15z m660 -3476 c22 -9 69 -25 104 -38 46
-15 80 -36 116 -71 37 -34 79 -61 144 -88 50 -22 91 -43 91 -47 0 -26 67 -80
129 -104 38 -14 80 -39 97 -56 16 -17 47 -43 69 -57 22 -14 76 -60 121 -101
172 -162 266 -240 306 -253 23 -8 46 -23 52 -34 38 -69 58 -93 99 -112 29 -14
57 -38 76 -66 19 -28 48 -52 76 -66 50 -24 66 -44 85 -103 6 -20 32 -61 56
-90 60 -70 78 -133 69 -238 -7 -79 -7 -79 -49 -107 -22 -15 -50 -42 -61 -60
-59 -96 -55 -93 -150 -122 -166 -50 -242 -63 -410 -67 -88 -2 -185 -8 -215
-13 -30 -6 -129 -19 -220 -30 -144 -18 -231 -21 -680 -23 -616 -2 -570 -12
-570 115 0 106 31 224 71 269 40 45 63 111 92 272 14 76 33 148 41 160 57 77
68 102 86 178 11 46 27 128 36 181 11 72 23 108 44 140 16 24 43 78 60 121 35
88 53 231 43 349 -4 51 -1 84 12 129 l18 60 61 -7 c34 -4 79 -13 101 -21z
m6520 -69 c61 -13 169 -39 240 -59 72 -20 184 -47 250 -60 139 -29 161 -37
188 -71 11 -14 45 -37 76 -52 67 -32 220 -175 259 -242 14 -25 41 -62 59 -83
18 -20 33 -41 33 -45 0 -4 7 -61 15 -127 15 -123 57 -298 77 -322 16 -20 1
-146 -27 -225 -14 -37 -33 -134 -45 -220 -26 -199 -25 -195 -59 -213 -29 -14
-40 -33 -102 -174 -17 -38 -42 -69 -89 -109 -36 -31 -100 -89 -142 -129 -42
-39 -94 -81 -115 -91 -21 -11 -52 -36 -70 -55 -21 -23 -54 -44 -95 -58 -45
-17 -76 -37 -109 -71 -54 -57 -65 -61 -227 -92 -177 -35 -255 -44 -427 -51
-134 -5 -164 -3 -275 19 -69 13 -156 27 -195 31 -38 4 -115 14 -170 22 -88 13
-104 19 -136 48 -31 28 -226 115 -257 115 -6 0 -20 16 -32 35 -16 25 -42 44
-95 69 -50 24 -83 48 -105 76 -18 23 -50 53 -72 66 -21 14 -55 50 -75 82 -20
31 -46 63 -57 71 -41 30 -54 50 -71 107 -9 33 -25 75 -35 94 -10 19 -23 67
-30 107 -6 40 -18 77 -26 84 -8 6 -28 36 -46 67 l-32 56 2 243 c1 250 12 375
40 428 8 17 34 52 57 79 24 26 60 77 80 112 27 45 50 71 81 89 25 14 73 53
108 86 44 41 90 72 148 98 47 22 96 52 109 68 34 41 37 42 156 62 107 18 126
26 307 123 27 15 43 16 109 9 60 -7 91 -5 135 6 92 24 185 31 387 25 147 -3
215 -10 300 -28z m4310 -1042 c66 -6 129 -17 140 -22 32 -17 73 -165 78 -280
2 -68 10 -109 25 -145 15 -35 24 -89 32 -185 6 -74 17 -171 25 -215 7 -44 16
-195 20 -335 13 -521 24 -796 35 -845 5 -27 26 -97 45 -155 45 -140 65 -276
65 -456 1 -261 33 -539 91 -784 31 -132 46 -287 64 -640 24 -476 33 -620 44
-665 6 -22 15 -141 20 -265 7 -146 16 -246 27 -285 9 -33 20 -82 25 -110 18
-99 39 -846 44 -1585 4 -546 10 -792 20 -890 14 -134 20 -350 16 -527 -1 -50
3 -154 9 -231 7 -76 10 -174 6 -218 -16 -205 -18 -327 -7 -404 21 -139 -6
-243 -93 -366 -27 -39 -100 -45 -716 -54 -322 -5 -601 -12 -620 -14 -19 -3
-125 -13 -236 -22 -167 -14 -233 -15 -390 -7 -242 13 -503 2 -644 -27 -58 -12
-127 -26 -155 -31 -27 -5 -215 -7 -418 -4 -250 3 -384 1 -420 -7 -30 -6 -176
-12 -352 -13 -184 -1 -335 -7 -390 -15 -70 -10 -228 -12 -710 -7 -341 3 -816
2 -1055 -2 -367 -6 -451 -5 -535 8 -121 18 -720 20 -855 2 -129 -17 -577 -14
-707 4 -59 9 -120 20 -135 25 -19 6 -52 4 -100 -7 -82 -17 -315 -13 -378 7
-19 6 -125 15 -236 20 -133 6 -228 16 -285 29 -46 11 -118 22 -159 25 -62 5
-469 -12 -753 -31 -38 -3 -99 1 -135 8 -67 12 -867 24 -1392 21 -129 -1 -401
4 -605 10 -203 6 -732 12 -1175 13 -1142 3 -2357 33 -2470 60 -36 8 -132 20
-215 25 -82 5 -231 16 -330 25 -106 9 -302 15 -475 15 -162 0 -326 5 -365 11
-38 5 -191 14 -340 19 -217 7 -292 13 -380 32 -91 18 -142 23 -290 23 -144 0
-191 4 -234 18 -67 21 -209 22 -301 2 -36 -8 -97 -14 -136 -15 -70 0 -296 25
-489 55 -203 31 -257 35 -585 45 -184 6 -373 15 -420 20 -47 5 -128 9 -181 9
l-97 1 -66 83 -66 82 6 75 c4 42 13 82 21 91 42 49 83 238 83 394 1 114 32
341 52 380 18 35 74 207 82 250 3 17 10 102 16 190 15 221 28 309 61 390 39
99 78 286 98 470 6 55 17 127 25 160 8 33 19 120 26 194 6 73 20 156 29 185
25 72 48 204 71 403 20 178 23 189 85 337 34 81 38 102 46 220 8 134 39 308
63 355 8 14 19 53 26 86 6 33 18 82 26 109 34 120 55 308 71 631 6 126 7 132
45 205 46 90 63 172 83 405 21 239 33 330 55 405 76 264 85 310 100 500 15
201 29 278 62 354 66 152 66 148 98 538 12 137 21 173 56 228 13 19 30 62 39
95 14 53 22 112 54 380 9 77 26 119 70 180 44 60 61 135 71 322 5 92 16 205
25 250 16 86 63 200 90 223 8 7 32 39 52 71 l36 59 76 1 c196 2 219 -1 277
-32 31 -16 64 -29 75 -29 26 0 66 -57 90 -127 12 -38 36 -77 62 -106 23 -25
53 -60 66 -78 14 -18 48 -43 77 -56 51 -23 51 -23 79 -109 19 -60 37 -94 59
-115 174 -166 257 -251 281 -287 24 -37 45 -51 124 -90 74 -35 103 -54 126
-86 19 -26 55 -54 95 -76 36 -19 77 -47 91 -61 14 -14 66 -47 117 -72 50 -26
111 -62 136 -80 24 -19 57 -37 73 -41 15 -4 72 -21 127 -39 85 -28 102 -37
125 -69 37 -51 63 -64 190 -91 73 -16 124 -33 149 -50 70 -48 154 -77 294
-101 115 -20 147 -30 188 -56 39 -25 69 -35 142 -45 51 -7 165 -26 253 -41
140 -24 188 -28 386 -29 l227 -1 58 -30 59 -31 123 10 c125 11 174 7 406 -29
78 -12 99 -12 165 2 42 9 103 27 136 41 55 23 78 26 260 33 198 8 282 18 399
44 34 8 91 17 129 21 53 6 76 14 109 39 64 48 82 56 193 81 100 23 177 59 189
90 3 8 38 29 78 48 51 24 99 58 162 115 l89 82 77 0 c75 0 174 25 206 51 10 8
35 9 77 4 87 -10 216 -7 257 6 92 29 145 35 220 24 l75 -10 47 -90 c29 -55 63
-104 88 -125 22 -20 55 -64 72 -100 24 -46 46 -73 78 -95 35 -25 49 -43 65
-87 23 -63 37 -86 95 -154 23 -26 56 -77 73 -112 21 -44 41 -71 66 -87 53 -33
65 -52 90 -140 l23 -80 -48 -40 c-26 -22 -68 -61 -93 -87 -25 -25 -73 -61
-105 -80 -34 -19 -66 -45 -75 -63 -36 -68 -62 -102 -85 -114 -13 -8 -41 -38
-62 -68 -21 -30 -58 -71 -82 -91 -47 -38 -96 -125 -108 -190 -5 -25 -19 -43
-58 -72 -47 -34 -56 -47 -86 -126 -22 -56 -50 -105 -77 -138 -24 -27 -48 -68
-54 -91 -35 -137 -61 -200 -95 -228 -46 -38 -60 -68 -89 -191 -16 -67 -36
-122 -56 -155 -57 -91 -96 -341 -70 -439 14 -50 163 -222 210 -241 15 -7 37
-25 49 -40 27 -37 90 -65 177 -80 105 -19 178 -41 200 -61 59 -53 237 -107
417 -125 35 -4 112 -18 172 -31 60 -13 127 -24 150 -24 22 0 82 -7 131 -16
121 -21 436 -22 519 -1 91 23 304 22 471 -3 91 -14 230 -24 400 -30 156 -5
317 -17 401 -29 132 -18 148 -19 235 -5 119 19 162 38 226 101 64 63 79 92
114 227 16 61 42 161 59 221 39 141 62 318 54 410 -3 38 -1 108 4 154 9 74 8
95 -10 160 -11 42 -26 108 -34 146 -8 39 -22 93 -33 120 -10 28 -27 82 -39
120 -26 91 -76 208 -112 265 -16 25 -41 83 -56 129 -27 84 -67 144 -104 156
-10 3 -29 27 -41 53 -31 67 -63 107 -96 121 -17 7 -39 31 -55 61 -21 37 -41
57 -82 80 -34 19 -58 41 -66 59 -16 39 -46 66 -102 90 -25 11 -61 36 -80 56
-44 49 -86 69 -186 89 -95 19 -113 26 -163 71 -56 50 -137 76 -264 84 -63 5
-126 15 -147 24 l-38 16 0 73 c0 49 7 90 20 126 25 64 48 249 60 472 5 99 14
181 23 206 8 23 18 72 22 110 5 54 13 77 35 104 15 20 39 58 53 86 20 39 35
54 69 70 36 16 152 120 196 176 8 9 26 50 41 91 16 41 42 92 59 113 35 44 53
115 71 279 17 148 31 223 47 236 22 18 537 5 634 -17 57 -12 156 -18 420 -23
292 -6 356 -10 413 -26 59 -16 72 -24 92 -54 12 -20 28 -63 35 -96 14 -69 42
-128 68 -147 39 -27 56 -79 63 -188 6 -119 26 -169 79 -208 22 -17 47 -57 84
-136 29 -62 64 -121 78 -132 14 -11 33 -35 43 -54 24 -48 64 -89 103 -105 18
-8 40 -28 50 -46 31 -57 51 -76 106 -102 38 -18 62 -39 83 -69 21 -33 47 -53
108 -85 44 -22 85 -45 91 -51 56 -51 115 -84 188 -106 56 -18 98 -38 126 -61
27 -23 67 -42 113 -56 67 -19 133 -41 310 -104 156 -56 318 -69 647 -52 237
12 408 38 485 72 45 20 91 32 190 50 116 21 164 43 203 93 35 44 59 54 167 72
82 13 145 39 179 73 13 13 54 41 91 62 37 20 85 56 108 79 93 94 238 256 267
299 17 26 35 47 40 47 14 0 57 80 70 130 17 62 46 118 87 164 52 57 74 115 84
226 10 108 24 157 61 212 32 46 53 154 69 338 16 197 9 190 188 184 75 -3 172
-2 216 3 135 14 1981 10 2120 -5z m-9676 -1347 c30 -8 58 -20 63 -27 15 -22 0
-118 -31 -208 -17 -47 -37 -125 -47 -175 -9 -49 -28 -130 -43 -180 l-27 -90
-78 -9 c-88 -10 -103 -5 -125 40 -18 39 -49 72 -91 99 -28 18 -39 35 -54 81
-29 91 -67 164 -97 186 -35 26 -46 55 -58 148 -14 113 -17 112 278 130 91 6
167 13 170 15 9 10 88 4 140 -10z m401 -1551 c291 -27 266 -22 296 -61 34 -45
114 -82 202 -94 95 -13 100 -16 112 -58 12 -44 31 -64 83 -86 38 -16 57 -40
57 -73 0 -36 43 -86 85 -98 35 -9 41 -15 48 -50 34 -159 62 -219 113 -240 38
-16 37 -15 54 -164 7 -58 23 -161 36 -230 30 -156 31 -305 5 -451 -13 -70 -17
-129 -14 -179 7 -105 4 -107 -204 -91 -87 6 -203 11 -258 11 -69 0 -115 5
-147 17 -45 16 -52 16 -120 0 -109 -26 -221 -23 -302 8 -83 31 -118 31 -270 0
l-121 -24 -74 19 c-68 17 -80 18 -160 4 -47 -8 -149 -17 -227 -21 -134 -6
-142 -5 -170 16 -61 45 -220 93 -379 116 -85 12 -102 17 -115 37 -38 59 -119
105 -200 115 -28 3 -53 9 -55 14 -10 15 15 60 39 69 53 20 88 97 111 243 5 30
14 42 46 63 48 30 85 103 94 186 9 78 23 106 61 124 40 19 70 76 85 160 21
115 28 133 59 149 41 21 99 116 112 182 6 30 16 56 22 58 89 24 97 27 110 53
8 15 17 44 21 64 7 35 10 38 51 44 54 8 149 63 189 110 l30 36 165 19 c90 10
168 20 172 21 17 6 201 -4 358 -18z"/>
<path d="M12900 17798 c-69 -20 -101 -56 -165 -185 -31 -63 -28 -77 30 -143
28 -31 50 -71 64 -113 12 -36 35 -83 51 -104 57 -75 236 -250 285 -278 28 -16
66 -43 85 -60 43 -40 75 -56 165 -83 39 -12 93 -36 120 -53 66 -42 135 -66
215 -74 36 -4 106 -13 155 -22 71 -11 139 -13 320 -8 301 8 374 23 442 91 33
33 66 48 147 68 95 23 136 47 181 103 21 26 60 71 87 100 l47 51 -15 54 c-24
84 -92 188 -146 224 -50 34 -68 35 -198 13 -62 -10 -238 -92 -247 -115 -21
-56 -249 -87 -529 -73 -194 10 -266 30 -311 87 -17 21 -50 46 -74 56 -24 10
-58 24 -76 32 -18 7 -44 31 -58 54 -14 22 -43 51 -66 66 -22 14 -48 39 -57 56
-28 50 -53 78 -90 102 -20 12 -46 43 -61 71 -41 77 -76 95 -180 94 -47 0 -102
-5 -121 -11z"/>
<path d="M19538 16993 c-116 -30 -174 -136 -166 -303 5 -100 23 -142 80 -179
29 -19 43 -40 68 -100 43 -108 72 -138 177 -190 78 -38 93 -50 112 -87 13 -23
60 -76 106 -117 l83 -74 113 -28 c98 -25 118 -33 155 -67 74 -68 90 -71 444
-72 400 -1 487 12 600 89 19 13 71 34 115 46 98 26 136 48 161 94 10 19 28 38
39 41 38 13 91 54 110 86 10 18 38 51 61 73 45 43 71 106 61 147 -11 39 -46
88 -75 105 -16 9 -38 31 -50 48 -11 18 -42 43 -67 55 -41 20 -58 22 -134 18
-98 -6 -136 -21 -178 -73 -19 -23 -48 -41 -83 -54 -75 -26 -199 -86 -230 -111
-37 -29 -117 -41 -277 -40 -162 0 -237 12 -273 40 -31 25 -219 120 -237 120
-7 0 -27 22 -43 49 -24 39 -43 55 -94 81 -53 26 -68 39 -88 78 -16 31 -37 54
-61 67 -29 15 -45 35 -68 85 -44 93 -99 146 -177 170 -74 23 -106 24 -184 3z"/>
<path d="M16667 15191 c-89 -23 -117 -46 -146 -117 -43 -105 -24 -241 43 -306
18 -18 43 -52 55 -75 l21 -42 -28 -18 c-15 -10 -43 -26 -63 -36 -57 -29 -69
-60 -69 -174 0 -140 27 -178 147 -210 31 -8 69 -21 84 -29 24 -12 34 -11 85 6
159 54 254 73 331 67 83 -6 112 -21 146 -72 12 -19 49 -51 82 -72 33 -21 78
-55 101 -75 93 -86 215 -107 325 -56 71 33 106 82 129 183 12 52 -13 117 -58
155 -51 43 -49 40 -83 88 -16 24 -50 56 -74 71 l-44 28 48 22 c26 13 73 47
104 77 56 53 68 78 92 184 8 37 -25 83 -92 126 -32 20 -74 51 -94 69 -32 29
-45 33 -117 39 -87 8 -107 2 -152 -40 -35 -32 -82 -50 -171 -65 -73 -12 -78
-11 -120 10 -24 12 -66 45 -94 71 -27 27 -77 62 -110 79 -33 16 -73 44 -90 61
-59 63 -100 74 -188 51z"/>
<path d="M21796 7299 c-70 -13 -126 -31 -195 -63 -53 -25 -116 -50 -141 -57
-72 -18 -184 -82 -221 -127 -9 -11 -53 -32 -98 -47 -63 -21 -92 -37 -133 -75
-29 -27 -101 -94 -159 -148 -118 -110 -220 -216 -237 -248 -6 -11 -22 -63 -37
-115 -18 -65 -37 -108 -61 -139 -19 -24 -42 -69 -51 -100 -21 -75 -60 -149
-96 -185 -39 -40 -53 -74 -82 -209 -27 -126 -34 -146 -70 -194 -39 -54 -62
-129 -84 -273 -16 -103 -27 -148 -51 -193 -25 -50 -28 -62 -18 -76 7 -10 36
-51 65 -93 29 -41 64 -84 79 -96 25 -20 137 -60 213 -76 18 -4 70 -26 115 -49
84 -44 115 -52 381 -95 87 -14 136 -28 180 -51 33 -17 105 -40 160 -52 95 -20
128 -22 670 -23 662 -3 1159 -12 1365 -26 187 -12 310 -4 353 25 18 11 43 42
56 69 13 26 41 61 62 78 48 38 55 50 117 220 67 180 92 300 99 479 8 200 -10
310 -86 520 -11 31 -27 111 -35 178 -17 134 -35 185 -89 250 -24 29 -45 69
-58 115 -28 91 -50 136 -84 167 -16 14 -49 57 -74 96 -67 100 -244 274 -328
320 -38 21 -86 54 -108 74 -43 38 -55 44 -189 85 -48 16 -101 39 -117 52 -78
66 -266 94 -644 97 -221 2 -288 0 -369 -15z m634 -541 c104 -10 118 -13 145
-38 39 -36 147 -87 205 -96 70 -11 107 -30 114 -59 4 -14 24 -37 48 -52 53
-36 84 -66 103 -104 9 -16 30 -38 48 -49 49 -29 85 -70 91 -106 8 -40 39 -80
77 -99 19 -10 29 -23 29 -38 0 -33 38 -174 56 -210 9 -17 32 -36 55 -46 l39
-16 2 -130 c4 -212 2 -231 -27 -270 -39 -50 -76 -175 -84 -283 -4 -65 -11 -96
-21 -102 -17 -11 32 -10 -710 -14 -322 -2 -657 -6 -745 -10 -112 -6 -236 -3
-414 8 -139 9 -262 16 -272 16 -10 0 -36 16 -58 35 -55 50 -96 64 -271 94
l-155 27 -3 92 c-3 99 -2 100 63 146 36 25 62 91 80 202 19 117 20 119 65 163
51 50 66 83 85 192 23 127 27 135 69 143 34 6 76 45 76 70 0 6 5 28 11 49 8
30 18 41 57 60 35 17 52 33 69 66 28 55 51 81 74 81 27 0 77 47 84 80 9 41 24
50 102 61 102 14 153 36 198 85 l40 43 150 11 c83 5 173 12 200 14 62 4 175
-1 325 -16z"/>
<path d="M21412 5935 c-51 -16 -76 -36 -91 -74 -8 -18 -25 -31 -54 -41 -80
-28 -103 -94 -87 -255 15 -165 37 -180 260 -179 170 0 247 13 278 47 23 25 42
86 42 136 0 18 10 49 21 68 21 34 21 34 1 56 -10 12 -22 34 -26 49 -6 27 -96
137 -132 162 -16 11 -78 28 -149 41 -11 2 -39 -3 -63 -10z"/>
<path d="M11070 5494 c-220 -23 -306 -47 -361 -99 -14 -14 -63 -38 -110 -54
-115 -38 -141 -54 -179 -101 -18 -22 -51 -50 -74 -61 -47 -24 -96 -67 -96 -85
0 -21 -41 -64 -80 -84 -29 -15 -47 -36 -71 -81 -22 -40 -46 -69 -71 -85 -45
-29 -57 -47 -99 -144 -19 -47 -45 -88 -69 -110 -38 -36 -53 -70 -90 -198 -14
-49 -31 -82 -52 -104 -44 -45 -62 -93 -98 -263 -18 -82 -40 -161 -49 -175 -40
-57 -74 -178 -99 -345 -14 -90 -15 -122 -6 -175 7 -36 13 -105 14 -155 1 -49
7 -105 13 -123 14 -36 59 -88 85 -97 9 -3 29 -25 43 -48 32 -54 72 -74 192
-93 95 -16 235 -14 382 6 94 12 623 12 755 -1 58 -6 204 -14 325 -19 176 -6
232 -12 280 -28 33 -11 110 -27 170 -36 61 -9 144 -24 185 -32 41 -8 140 -19
220 -25 189 -12 266 -24 390 -60 81 -23 123 -29 199 -29 53 0 150 -7 216 -15
175 -21 319 -20 388 4 109 38 245 175 278 281 14 47 18 92 18 225 0 178 -6
206 -55 264 -32 39 -38 63 -64 280 -24 207 -53 338 -84 384 -25 36 -45 92 -70
194 -19 77 -49 137 -91 184 -18 21 -42 66 -55 104 -15 44 -38 85 -66 119 -25
28 -61 78 -82 110 -20 33 -54 76 -75 95 -48 45 -102 99 -143 143 -19 21 -61
46 -115 68 -69 28 -90 42 -108 70 -26 41 -75 77 -123 91 -20 5 -51 20 -69 34
-72 52 -137 86 -200 105 -56 17 -73 28 -105 66 -20 26 -51 52 -68 59 -31 13
-130 24 -406 45 -176 13 -414 11 -570 -6z m585 -560 c88 -13 115 -21 135 -39
46 -43 118 -68 327 -112 66 -14 73 -18 78 -44 12 -52 39 -75 123 -98 67 -20
86 -30 124 -69 47 -48 102 -103 120 -120 52 -49 72 -81 96 -155 29 -87 23 -82
122 -127 10 -5 17 -29 22 -76 14 -150 35 -201 97 -228 l38 -18 12 -91 c6 -51
16 -159 21 -242 6 -99 15 -171 28 -212 l20 -63 -28 -71 c-15 -40 -35 -76 -45
-81 -9 -6 -60 -8 -113 -6 -92 3 -99 5 -138 36 -71 57 -151 69 -589 91 -93 5
-224 14 -290 21 -103 10 -122 15 -140 34 -52 57 -56 57 -312 60 -131 1 -281 9
-333 16 -75 11 -127 11 -240 3 -82 -6 -171 -7 -205 -3 -101 14 -236 11 -300
-6 -78 -21 -146 -28 -199 -20 -61 10 -76 49 -65 172 11 126 18 156 43 179 12
11 30 33 39 48 25 39 64 206 72 302 11 143 14 155 43 166 40 15 80 58 88 93
14 63 44 113 107 178 54 55 66 74 73 114 8 43 12 48 48 61 61 21 106 72 106
121 0 15 11 22 54 30 60 12 163 75 190 116 19 30 50 37 191 46 211 13 465 11
580 -6z"/>
<path d="M12155 3996 c-5 -3 -26 -7 -46 -10 -26 -5 -53 -23 -96 -65 l-61 -59
-4 -78 c-6 -98 2 -114 84 -182 34 -28 67 -56 72 -61 4 -5 21 -22 37 -39 l28
-30 62 15 c69 16 119 38 119 53 0 6 8 10 18 10 36 0 177 79 195 109 20 34 21
52 6 140 -11 58 -17 70 -61 113 -75 73 -96 81 -228 84 -63 2 -119 2 -125 0z"/>
<path d="M16695 6450 c-16 -5 -65 -13 -109 -18 -102 -13 -123 -31 -137 -127
-9 -53 -17 -73 -35 -88 -36 -28 -57 -73 -45 -95 6 -9 57 -63 113 -119 l103
-101 83 10 c70 9 88 15 114 40 17 16 41 34 52 40 38 20 118 92 131 118 7 14
16 62 20 106 5 65 4 88 -9 112 -18 34 -103 86 -170 103 -26 6 -49 15 -52 20
-6 10 -17 10 -59 -1z"/>
<path d="M5410 9434 c-105 -12 -145 -35 -176 -100 -16 -33 -35 -55 -102 -117
-31 -29 -35 -41 -81 -242 -18 -75 -26 -94 -56 -124 -51 -49 -66 -91 -75 -213
-12 -147 -33 -220 -72 -243 -47 -27 -75 -101 -83 -220 -10 -153 -27 -222 -63
-255 -53 -48 -69 -95 -87 -251 -19 -169 -24 -183 -76 -238 -49 -54 -65 -107
-82 -282 -10 -100 -19 -145 -33 -166 -10 -17 -34 -52 -52 -79 -18 -26 -37 -64
-43 -84 -6 -19 -15 -134 -19 -255 -5 -121 -13 -242 -20 -270 -6 -27 -29 -80
-51 -117 -60 -99 -69 -139 -84 -388 -16 -243 -21 -274 -60 -329 -53 -77 -75
-154 -90 -314 -17 -184 -27 -222 -70 -267 -58 -62 -66 -88 -76 -263 -13 -228
-26 -323 -56 -392 -14 -33 -33 -103 -43 -155 -11 -52 -27 -129 -37 -170 -16
-68 -18 -134 -18 -745 0 -746 3 -799 57 -880 17 -25 34 -45 38 -45 16 0 39
-87 55 -209 18 -139 28 -165 87 -218 22 -21 51 -60 63 -88 27 -61 44 -76 115
-108 30 -13 68 -38 84 -55 33 -36 66 -48 151 -57 72 -8 98 1 156 52 25 21 65
45 89 53 45 15 123 82 308 267 155 154 199 208 213 264 13 50 23 62 108 127
23 18 36 43 60 121 27 88 35 102 65 121 34 21 56 57 91 153 9 27 35 69 56 93
50 58 64 86 85 168 12 48 27 78 54 109 54 62 77 110 99 212 25 116 34 139 75
187 36 41 60 113 71 208 12 114 35 186 76 240 50 67 66 123 79 283 13 163 22
197 71 271 51 76 68 136 79 276 16 183 23 210 79 266 58 59 67 90 77 287 l7
138 57 64 c66 72 74 97 91 279 11 114 24 153 66 196 51 51 76 128 88 265 8 92
24 137 61 174 60 60 78 129 93 367 10 158 20 194 57 219 59 38 79 130 89 395
3 91 11 198 17 238 10 66 14 76 45 99 34 26 65 76 76 123 3 14 9 90 13 170 7
156 19 204 64 256 21 24 30 50 38 106 14 91 6 122 -53 233 -24 44 -49 100 -56
124 -8 26 -28 58 -49 78 -19 18 -47 45 -62 59 -15 14 -30 39 -34 57 -11 53
-34 88 -96 150 -44 45 -77 67 -130 88 -50 21 -83 43 -117 78 -48 50 -41 47
-218 91 -24 6 -62 28 -87 49 -25 22 -71 50 -103 62 -56 23 -67 24 -408 25
-192 1 -366 0 -385 -2z m729 -549 c45 -11 64 -24 105 -68 40 -42 60 -56 91
-61 69 -12 75 -16 99 -70 19 -42 31 -56 62 -70 22 -9 46 -21 54 -25 8 -4 21
-34 28 -65 9 -37 25 -67 44 -86 27 -27 28 -32 19 -67 -23 -90 -61 -298 -75
-418 -24 -198 -25 -202 -42 -242 -18 -41 -24 -52 -54 -98 -27 -40 -37 -98 -55
-314 -9 -101 -20 -191 -24 -200 -5 -9 -21 -27 -36 -41 -57 -53 -73 -112 -100
-364 -13 -124 -17 -142 -39 -165 -41 -43 -86 -172 -97 -275 -25 -231 -26 -236
-78 -287 -58 -55 -64 -76 -86 -294 -9 -88 -21 -162 -26 -163 -5 -2 -23 -15
-39 -28 -47 -40 -66 -120 -90 -377 -9 -107 -10 -109 -50 -154 -62 -71 -100
-229 -100 -418 0 -92 -14 -139 -44 -153 -53 -24 -106 -192 -106 -333 0 -65
-12 -78 -62 -68 -24 4 -63 10 -88 14 -37 5 -49 12 -67 39 -37 57 -83 71 -358
107 -60 8 -90 18 -120 39 -22 15 -58 35 -80 45 -47 20 -220 55 -271 55 -42 0
-95 25 -89 43 3 6 14 91 25 187 l20 174 39 41 c38 39 40 43 44 120 2 44 11
114 21 155 10 41 25 150 35 243 15 151 19 169 39 183 12 8 29 28 37 44 23 45
55 189 55 251 0 31 7 100 15 155 8 54 15 138 15 186 0 86 1 88 31 115 32 28
81 124 93 179 3 16 12 80 20 143 11 86 20 119 35 135 51 54 88 180 102 341 14
174 26 249 41 254 7 2 27 19 44 37 40 41 64 139 70 279 6 129 19 177 54 203
51 38 74 112 110 358 10 70 16 85 39 101 66 49 121 239 121 421 0 89 2 103 18
109 41 14 82 55 93 94 21 68 26 69 279 69 164 0 240 -4 279 -15z m-1689 -5140
c237 -21 270 -28 327 -68 60 -43 83 -50 257 -82 76 -14 147 -30 157 -36 10 -5
28 -29 40 -52 12 -23 32 -56 45 -74 l24 -32 -24 -35 c-13 -19 -40 -86 -60
-149 -30 -92 -43 -118 -66 -136 -33 -24 -64 -78 -75 -131 -16 -78 -55 -153
-96 -188 -23 -20 -57 -60 -75 -89 -38 -58 -36 -58 -121 -15 -103 52 -176 73
-281 82 -59 6 -136 18 -172 28 -64 17 -65 18 -83 67 -34 92 -47 242 -47 562
l0 301 26 31 c30 36 14 35 224 16z m8 -1435 c6 -11 34 -31 61 -44 35 -18 52
-34 60 -56 14 -40 1 -61 -53 -86 -29 -14 -47 -31 -61 -60 -27 -56 -45 -67 -89
-51 -48 17 -117 97 -123 145 -7 52 4 72 67 125 63 52 115 63 138 27z"/>
</g>
</svg>
